<svg viewBox="0 0 315.83 282.58" xmlns:xlink="http://www.w3.org/1999/xlink" xmlns="http://www.w3.org/2000/svg"><defs><style>.cls-1{opacity:0.46;}.cls-2{fill:#cde9f9;}.cls-3{fill:#bd8aae;}.cls-4{fill:url(#未命名的渐变_37);}.cls-5{fill:url(#未命名的渐变_37-2);}.cls-6{opacity:0.89;}.cls-7{fill:#c366a8;}.cls-8{fill:#a6358b;}.cls-9{fill:#e7f6fd;}.cls-10{fill:url(#未命名的渐变_37-3);}.cls-11{opacity:0.52;}.cls-12{fill:url(#未命名的渐变_58);}.cls-13{fill:url(#未命名的渐变_59);}.cls-14{fill:url(#未命名的渐变_59-2);}.cls-15{fill:url(#未命名的渐变_58-2);}.cls-16{fill:url(#未命名的渐变_58-3);}.cls-17{fill:url(#未命名的渐变_58-4);}.cls-18{fill:url(#未命名的渐变_58-5);}.cls-19{fill:url(#未命名的渐变_37-4);}.cls-20{fill:#fde0d9;}.cls-21{fill:#fff;}.cls-22{fill:#3c7fbe;}.cls-23{fill:#222457;}.cls-24{fill:#2a2f6d;}.cls-25{fill:#306097;}.cls-26{fill:url(#未命名的渐变_37-5);}.cls-27{fill:url(#未命名的渐变_37-6);}.cls-28{fill:url(#未命名的渐变_37-7);}.cls-29{fill:url(#未命名的渐变_37-8);}.cls-30{fill:url(#未命名的渐变_25);}.cls-31{fill:url(#未命名的渐变_25-2);}.cls-32{fill:url(#未命名的渐变_37-9);}.cls-33{fill:url(#未命名的渐变_37-10);}.cls-34{fill:url(#未命名的渐变_37-11);}.cls-35{fill:url(#未命名的渐变_37-12);}.cls-36{fill:#aecfdc;}.cls-37{fill:url(#未命名的渐变_37-13);}.cls-38{opacity:0.09;}.cls-39{fill:url(#未命名的渐变_37-14);}.cls-40{opacity:0.47;}.cls-41{fill:url(#未命名的渐变_37-15);}.cls-42{fill:url(#未命名的渐变_37-16);}.cls-43{fill:url(#未命名的渐变_37-17);}.cls-44{fill:#ecbfb9;}.cls-45{fill:url(#未命名的渐变_37-18);}.cls-46{fill:url(#未命名的渐变_37-19);}.cls-47{fill:url(#未命名的渐变_37-20);}</style><linearGradient gradientUnits="userSpaceOnUse" gradientTransform="matrix(1, 0, 0, -1, 0, -372.56)" y2="-469.92" x2="215.66" y1="-469.92" x1="101.58" id="未命名的渐变_37"><stop stop-color="#28a8e0" offset="0.06"></stop><stop stop-opacity="0" stop-color="#29abe2" offset="1"></stop></linearGradient><linearGradient xlink:href="#未命名的渐变_37" y2="-388.23" x2="182.25" y1="-388.23" x1="139.89" id="未命名的渐变_37-2"></linearGradient><linearGradient xlink:href="#未命名的渐变_37" y2="-474.77" x2="157.95" y1="-474.77" x1="101.58" id="未命名的渐变_37-3"></linearGradient><linearGradient gradientUnits="userSpaceOnUse" gradientTransform="matrix(1, 0, 0, -1, 0, -372.56)" y2="-497.79" x2="207.86" y1="-497.79" x1="169.83" id="未命名的渐变_58"><stop stop-opacity="0" stop-color="#fff" offset="0"></stop><stop stop-color="#fff" offset="0.91"></stop></linearGradient><linearGradient gradientUnits="userSpaceOnUse" gradientTransform="matrix(1, 0, 0, -1, 0, -372.56)" y2="-476.06" x2="193.94" y1="-476.06" x1="189.4" id="未命名的渐变_59"><stop stop-color="#7f3f98" offset="0.06"></stop><stop stop-opacity="0" stop-color="#29abe2" offset="1"></stop></linearGradient><linearGradient xlink:href="#未命名的渐变_59" y2="-516.93" x2="215.66" y1="-516.93" x1="101.58" id="未命名的渐变_59-2"></linearGradient><linearGradient xlink:href="#未命名的渐变_58" y2="-479.13" x2="166.75" y1="-479.13" x1="129.91" id="未命名的渐变_58-2"></linearGradient><linearGradient xlink:href="#未命名的渐变_58" y2="-477.23" x2="191.01" y1="-477.23" x1="167.81" id="未命名的渐变_58-3"></linearGradient><linearGradient xlink:href="#未命名的渐变_58" y2="-479.69" x2="175.45" y1="-479.69" x1="149.56" id="未命名的渐变_58-4"></linearGradient><linearGradient xlink:href="#未命名的渐变_58" y2="-483.34" x2="182.58" y1="-483.34" x1="172.11" id="未命名的渐变_58-5"></linearGradient><linearGradient xlink:href="#未命名的渐变_37" y2="-404.39" x2="184.51" y1="-404.39" x1="137.63" id="未命名的渐变_37-4"></linearGradient><linearGradient xlink:href="#未命名的渐变_37" y2="-578.82" x2="247.29" y1="-578.82" x1="247.05" id="未命名的渐变_37-5"></linearGradient><linearGradient xlink:href="#未命名的渐变_37" y2="-556.69" x2="167.29" y1="-556.69" x1="162.67" id="未命名的渐变_37-6"></linearGradient><linearGradient xlink:href="#未命名的渐变_37" y2="-570.04" x2="184.27" y1="-570.04" x1="179.64" id="未命名的渐变_37-7"></linearGradient><linearGradient xlink:href="#未命名的渐变_37" y2="-569.4" x2="170.94" y1="-569.4" x1="158.49" id="未命名的渐变_37-8"></linearGradient><linearGradient gradientUnits="userSpaceOnUse" gradientTransform="matrix(1, 0, 0, -1, 0, -372.56)" y2="-570.73" x2="168.6" y1="-570.73" x1="161.25" id="未命名的渐变_25"><stop stop-color="#bd8aae" offset="0"></stop><stop stop-opacity="0" stop-color="#2484c6" offset="1"></stop></linearGradient><linearGradient xlink:href="#未命名的渐变_25" y2="-580.97" x2="170.94" y1="-580.97" x1="158.49" id="未命名的渐变_25-2"></linearGradient><linearGradient xlink:href="#未命名的渐变_37" y2="-576.31" x2="187.91" y1="-576.31" x1="175.46" id="未命名的渐变_37-9"></linearGradient><linearGradient xlink:href="#未命名的渐变_37" y2="-576.96" x2="185.58" y1="-576.96" x1="178.22" id="未命名的渐变_37-10"></linearGradient><linearGradient xlink:href="#未命名的渐变_37" y2="-582.01" x2="187.91" y1="-582.01" x1="175.46" id="未命名的渐变_37-11"></linearGradient><linearGradient xlink:href="#未命名的渐变_37" y2="-527.75" x2="101.68" y1="-527.75" x1="101.63" id="未命名的渐变_37-12"></linearGradient><linearGradient xlink:href="#未命名的渐变_37" y2="-491.76" x2="124.59" y1="-491.76" x1="99.35" id="未命名的渐变_37-13"></linearGradient><linearGradient xlink:href="#未命名的渐变_37" y2="-492.18" x2="130.2" y1="-492.18" x1="92.46" id="未命名的渐变_37-14"></linearGradient><linearGradient xlink:href="#未命名的渐变_37" y2="-494.5" x2="88.28" y1="-494.5" x1="67.35" id="未命名的渐变_37-15"></linearGradient><linearGradient xlink:href="#未命名的渐变_37" y2="-496.5" x2="79.92" y1="-496.5" x1="67.35" id="未命名的渐变_37-16"></linearGradient><linearGradient xlink:href="#未命名的渐变_37" y2="-477.22" x2="97.02" y1="-477.22" x1="64.98" id="未命名的渐变_37-17"></linearGradient><linearGradient xlink:href="#未命名的渐变_37" y2="-526.05" x2="79.17" y1="-526.05" x1="75.38" id="未命名的渐变_37-18"></linearGradient><linearGradient xlink:href="#未命名的渐变_37" y2="-517.51" x2="79.27" y1="-517.51" x1="79.17" id="未命名的渐变_37-19"></linearGradient><linearGradient xlink:href="#未命名的渐变_37" y2="-446.8" x2="294.14" y1="-446.8" x1="212.07" id="未命名的渐变_37-20"></linearGradient></defs><g id="图层_2"><g id="图层_1-2"><g class="cls-1" id="lowerbg"><ellipse ry="65.7" rx="150.85" cy="216.88" cx="164.98" class="cls-2"></ellipse></g><g id="sidebg"><g class="cls-1"><path d="M71.36,100.67,5.6,138.53A3.73,3.73,0,0,1,0,135.3V114.94a3.75,3.75,0,0,1,1.87-3.24L67.62,73.84a3.75,3.75,0,0,1,5.61,3.24V97.43A3.74,3.74,0,0,1,71.36,100.67Z" class="cls-2"></path></g><g class="cls-1"><path d="M112,124.76,46.27,162.63a3.75,3.75,0,0,1-5.61-3.24V139a3.73,3.73,0,0,1,1.88-3.23l65.75-37.87a3.74,3.74,0,0,1,5.6,3.24v20.36A3.72,3.72,0,0,1,112,124.76Z" class="cls-2"></path></g><g class="cls-1"><path d="M129.16,27.34,63.41,65.2A3.74,3.74,0,0,1,57.81,62V41.61a3.72,3.72,0,0,1,1.87-3.24L125.43.5A3.75,3.75,0,0,1,131,3.74V24.1A3.75,3.75,0,0,1,129.16,27.34Z" class="cls-2"></path></g></g><g id="tube"><path d="M215.09,169.87a1.63,1.63,0,0,0-.09-.16l-20.73-63.8c0-4-15.09-7.34-33.7-7.34s-33.7,3.29-33.7,7.34l-24.29,63.35a3.92,3.92,0,0,0-1,2.47c0,7.28,25.54,13.19,57,13.19s57-5.91,57-13.19A3.52,3.52,0,0,0,215.09,169.87Z" class="cls-3"></path><path d="M215.66,171.73c0,2.43-2.85,4.71-7.8,6.66a88,88,0,0,1-18.87,4.5,213.29,213.29,0,0,1-30.37,2,228.13,228.13,0,0,1-23.52-1.17c-19.77-2.07-33.52-6.67-33.52-12a3.92,3.92,0,0,1,1-2.47c3.47-8.6,15.29-38.18,24.72-65.42,6.5-18.76,11.86-36.4,12.57-45.31h0V15.9h0c0-.08,0-.15,0-.23,0-3.24,9.48-5.88,21.18-5.88s21.18,2.64,21.18,5.88a1.81,1.81,0,0,1,0,.23h0V59.79a70.78,70.78,0,0,0,2.63,16.07c.94,3.48,4.35,14.33,8.58,27.54,7.95,24.78,18.78,57.9,21.54,66.31A3.67,3.67,0,0,1,215.66,171.73Z" class="cls-4"></path><ellipse ry="5.88" rx="21.18" cy="15.67" cx="161.07" class="cls-5"></ellipse><g class="cls-6"><path d="M194.27,105.92l-.33-1A1.85,1.85,0,0,1,194.27,105.92Z" class="cls-7"></path></g><g class="cls-6"><ellipse ry="13.2" rx="57.04" cy="171.72" cx="158.62" class="cls-8"></ellipse></g><circle r="4.47" cy="128.33" cx="147.59" class="cls-9"></circle><circle r="3.04" cy="142.35" cx="157.95" class="cls-9"></circle><circle r="2.26" cy="154.03" cx="148.14" class="cls-9"></circle><circle r="1.37" cy="165.87" cx="156.58" class="cls-9"></circle><circle r="3.01" cy="123.28" cx="178.94" class="cls-9"></circle><circle r="2.04" cy="132.73" cx="171.99" class="cls-9"></circle><circle r="1.52" cy="140.59" cx="178.57" class="cls-9"></circle><path d="M172.91,147.63a.92.92,0,1,0,.92.92A.92.92,0,0,0,172.91,147.63Z" class="cls-9"></path><path d="M154.91,43.82c-6.32,8.88-15.72,32-9,48.46s18.29,81.1-10.77,91.47h0c-19.77-2.07-33.52-6.67-33.52-12a3.92,3.92,0,0,1,1-2.47c5.86-14.52,35.54-88.89,37.29-110.73h0V20.66a23,23,0,0,0,6,2.35C157.47,25.76,161.22,34.94,154.91,43.82Z" class="cls-10"></path><g class="cls-11"><path d="M207.86,178.39a88,88,0,0,1-18.87,4.5c-3.61-15.62-25.05-109.76-17.6-114.37,4.07-2.52,8.89-4.18,21.85,52.35C200.42,152.22,207.85,169.68,207.86,178.39Z" class="cls-12"></path></g><path d="M189.4,102.11a17.33,17.33,0,0,1,4.06,1.29l.48,1.49C193.3,103.88,191.72,102.94,189.4,102.11Z" class="cls-13"></path><path d="M215.66,171.73c0,2.43-2.85,4.71-7.8,6.66a88,88,0,0,1-18.87,4.5,213.29,213.29,0,0,1-30.37,2,228.13,228.13,0,0,1-23.52-1.17c-19.77-2.07-33.52-6.67-33.52-12a3.92,3.92,0,0,1,1-2.47c3.47-8.6,15.29-38.18,24.72-65.42l1,0a2.79,2.79,0,0,0-1.4,2.11c0,4,15.09,7.34,33.7,7.34s33.69-3.29,33.7-7.34c7.85,24.46,18.07,55.66,20.73,63.79A3.67,3.67,0,0,1,215.66,171.73Z" class="cls-14"></path><g class="cls-6"><ellipse ry="7.34" rx="33.7" cy="105.91" cx="160.57" class="cls-7"></ellipse></g><path d="M166,111s-15,.21-23.34-1.09-6.52-7.58,9.39-7.73,1.36-1.45-6.26-1-14.28,2.54-15.64,3.65,3.26,4,2.51,3,.41-2.76,1.43-1.92-5,1.71,5.31,4.09S171,112.53,166,111Z" class="cls-15"></path><path d="M168.46,101.13s11.71-.2,17.82,1.08,5.92,4.74,1.63,5.56-11.22.34-9.86,0,8.23-.08,9.52-1.2,1.91-2.88-4-3.43S164.78,101.64,168.46,101.13Z" class="cls-16"></path><path d="M151.65,108.22s.75.91,11.7.7,13.34-1.22,11.57-1.9-7.82-.69-6.8-.45,2.92,1.18-.89,1.12-12.72.42-13.26-.4,7.62-1.26,5.71-1.89S144.51,107.85,151.65,108.22Z" class="cls-17"></path><path d="M172.67,111s8.24.07,9-.81,1.64.41,0,.81S169.61,112.19,172.67,111Z" class="cls-18"></path><path d="M182.58,27.29c-3.6,2.31-11.88,3.92-21.51,3.92s-17.91-1.61-21.51-3.92c-1.24.79-1.93,1.67-1.93,2.59,0,3.59,10.49,6.5,23.44,6.5s23.44-2.91,23.44-6.5C184.51,29,183.82,28.08,182.58,27.29Z" class="cls-3"></path><path d="M182.58,27.29c-3.6,2.31-11.88,3.92-21.51,3.92s-17.91-1.61-21.51-3.92c-1.24.79-1.93,1.67-1.93,2.59,0,3.59,10.49,6.5,23.44,6.5s23.44-2.91,23.44-6.5C184.51,29,183.82,28.08,182.58,27.29Z" class="cls-19"></path></g><g id="man2"><path d="M226.24,136.39a22.37,22.37,0,0,0,0,5.62c.4,3,1,5.27,2.51,5.47s2.72-.16,2.72,1.25v1.4s6.12.94,6.87-.35,0-5.5,0-5.5,1.5-4.66-2.92-5.86S226.73,133.6,226.24,136.39Z" class="cls-20"></path><path d="M249.28,180.55c5.15-1.76,5.4-9,4.37-16.32s-.68-12.53-7.51-13.62a24.26,24.26,0,0,0-4.84-.2l.24,0a31.23,31.23,0,0,0,0-4.35c-.21-.62-1.12-.62-1.12-.62s-.21,1.13-2.7,2.48-7,1.2-7,1.2v3h0a63.7,63.7,0,0,0-8.71,2.76c-5.88,2.43-6.13,21.95-7.31,22.87s-13.88,0-13.88,0a5.73,5.73,0,0,0,0,5.58s8.43,4.9,14.51,6.12,7.53-2.85,7.53-2.85v1.75l-1.63,46.27s8.45,3.48,13.47,1.78,20.53-11.86,20.53-11.86C255.51,212.49,249.28,180.55,249.28,180.55Z" class="cls-21"></path><path d="M255.27,224.47s-2.39,1.58-5.61,3.59l-2,1.23c-2.34,1.44-4.9,3-7.21,4.26-1.23.68-2.4,1.3-3.42,1.8a21.34,21.34,0,0,1-2.29,1c-5,1.7-13.47-1.78-13.47-1.78l.65-18.59,1-27.68v-1.75s-1.46,4.08-7.53,2.85-14.51-6.12-14.51-6.12a5.73,5.73,0,0,1,0-5.58s12.69.93,13.88,0,1.43-20.44,7.31-22.87a63.52,63.52,0,0,1,8.7-2.76v-3s4.48.16,7-1.2,2.7-2.48,2.7-2.48.91,0,1.12.62a31.23,31.23,0,0,1,0,4.35l-.24,0a24.26,24.26,0,0,1,4.84.2c6.83,1.09,6.47,6.35,7.51,13.62,1,7,.8,14-3.81,16.09l-.53.22h0S255.51,212.49,255.27,224.47Z" class="cls-22"></path><path d="M249.62,182.36s-10.81,5.6-19.82,4.37v6.85s13,1,20.91-5.3Z" class="cls-9"></path><path d="M219.43,256.4c-2.24.46-.28,4.1,3.95,5.92s6.05,1.32,6.05,1.32-4.06-5.35-4.06-6.37C225.37,257.27,221.68,255.94,219.43,256.4Z" class="cls-23"></path><path d="M243.57,247.88a4.5,4.5,0,0,0-2.85,0c-1.36.55-.47,3.44,3.62,5.16C244.34,253,246.42,247.88,243.57,247.88Z" class="cls-23"></path><path d="M243.59,231.76V252s-.42,1.22,2.55,1.47,5.54-3,5.54-3v-23.7Z" class="cls-24"></path><path d="M225.37,235.89v26.43a11.84,11.84,0,0,0,1.75,1.07c2.58,1.36,7.62-2,7.62-2v-25C231.66,237.7,225.37,235.89,225.37,235.89Z" class="cls-24"></path><path d="M200.86,177.68s-.89-1.13-1.7-1.24-1.51.07-2.18-.39-.54.75.34,1.16l.89.4s-2.38.55-3.13.07-2.48-.9-2.38-.47a5.71,5.71,0,0,0,2.51,1.76,9.84,9.84,0,0,1-2.94-1c-1.14-.72-1.37-.41-1.34-.18a6.44,6.44,0,0,0,3.39,2.14,4.38,4.38,0,0,1-2.7-.49s-.87.21.58,1a5,5,0,0,0,2.4.82,2.63,2.63,0,0,1-2.27,0s-.48,0-.36.33a4.48,4.48,0,0,0,3.27,1.25c1.61,0,1.76.64,3.57.64s2.05-.23,2.05-.23A5.54,5.54,0,0,1,200.86,177.68Z" class="cls-20"></path><path d="M227.25,136.39s-1.36,3.21.44,5.7a11.34,11.34,0,0,1,1.22,2.17,5.16,5.16,0,0,0,2.83,3.15c2.85,1.42,8.2,1,9.27-2s2.14-6.69.62-7.82S227.25,136.39,227.25,136.39Z" class="cls-24"></path><path d="M227.69,181.17c-1.8,9.08-4.24,24.7-5.77,34.79l1-27.68v-1.46A34.42,34.42,0,0,0,225,179.4c1.43-7.9,2.25-16.07,1.06-18.72C226.17,160.83,230.48,167.13,227.69,181.17Z" class="cls-25"></path><path d="M250.24,167c-.27,2.14-.37,10.47-.4,13.32l-.53.22c-.88-7,.53-24,.53-24S250.59,164.42,250.24,167Z" class="cls-25"></path><path d="M240.45,233.55c-1.23.68-2.4,1.3-3.42,1.8,0-6.12.07-18.91.83-22,1-3.92.46-11.14.42-11.7C238.38,202.67,240.84,226,240.45,233.55Z" class="cls-25"></path><path d="M247.05,205.3s.1.46.24,1.91Z" class="cls-26"></path><path d="M247.66,229.29c.06-4.14.17-13.25,0-17.31-.11-2.18-.22-3.69-.32-4.71.6,4.66,2.06,16.35,2.36,20.79Z" class="cls-25"></path><path d="M232.37,147.68s-6-2.64-7.91-3.82c-1.56-1-3.46-3.28-3.48-5.6a4.32,4.32,0,0,1,.51-1.87c2.7-5.61,2-1.8.43-4.69-2.37-4.31.23-7.42,4.14-7.35s4.39,1.22,5.61,0,2.45-4.21,4.83-4.18,3.41,4.18,5.24,3.84,8-.27,7.07,3.5-4.12,5.23-2.67,7.47,1.06,2.68,0,4-1,1.12-.45,1.92S241.57,150.46,232.37,147.68Z" class="cls-24"></path></g><g id="table"><ellipse ry="0.91" rx="2.31" cy="184.14" cx="164.98" class="cls-27"></ellipse><ellipse ry="0.45" rx="2.31" cy="197.48" cx="181.95" class="cls-28"></ellipse><path d="M169.93,274.59l-37.58-21.95a2.64,2.64,0,0,1,0-4.57l34.27-19.71s12.14,5.65,11.58,11S182.81,279.18,169.93,274.59Z" class="cls-22"></path><path d="M214.26,206.52v42a7.35,7.35,0,0,1-3.68,6.38L174.77,275.6a3.71,3.71,0,0,1-5.56-3.22V227.13S211.34,204.88,214.26,206.52Z" class="cls-2"></path><path d="M172.49,240.06a43.92,43.92,0,0,0-1.7-5.21l-.37-3.73L129.69,209v2.76a1.33,1.33,0,0,0,.66,1.15l34.32,19.78,1.08.62c4,3,3.46,8.77,3.46,8.77Z" class="cls-2"></path><path d="M169.87,232.33l43.72-25.1a1.32,1.32,0,0,0,.67-1.16,1.34,1.34,0,0,0-.69-1.15l-35.24-19.27a1.3,1.3,0,0,0-1.21,0l-46.68,22.31a1.32,1.32,0,0,0-.09,2.34l38.19,22.06A1.37,1.37,0,0,0,169.87,232.33Z" class="cls-21"></path><path d="M170.88,208.12a0,0,0,0,1,0,0l-2.27-9.93c0-.63-1.64-1.14-3.67-1.14s-3.68.51-3.68,1.14L158.6,208a.76.76,0,0,0-.11.38c0,1.14,2.79,2.05,6.22,2.05s6.23-.91,6.23-2.05A.75.75,0,0,0,170.88,208.12Z" class="cls-3"></path><path d="M170.87,208.1c-.46-2-3-13-3.29-14.6a15.79,15.79,0,0,1-.29-2.5v-6.83h0v0c0-.51-1-.92-2.31-.92s-2.31.41-2.31.92v0h0v6.63h0c-.19,3.4-3.43,15-4.07,17.23a.76.76,0,0,0-.11.38c0,1.14,2.79,2.06,6.22,2.06s6.23-.92,6.23-2.06A.87.87,0,0,0,170.87,208.1Z" class="cls-29"></path><ellipse ry="1.14" rx="3.68" cy="198.17" cx="164.93" class="cls-30"></ellipse><ellipse ry="2.05" rx="6.22" cy="208.41" cx="164.71" class="cls-31"></ellipse><path d="M187.85,209.31h0l-2.26-4.9c0-.31-1.65-.56-3.68-.56s-3.68.25-3.68.56l-2.65,4.86a.27.27,0,0,0-.11.19c0,.56,2.79,1,6.23,1s6.22-.45,6.22-1A.22.22,0,0,0,187.85,209.31Z" class="cls-2"></path><path d="M187.84,209.3c-.46-1-3-6.43-3.29-7.2a3.93,3.93,0,0,1-.28-1.23V197.5h0v0c0-.25-1-.45-2.32-.45s-2.31.2-2.31.45v0h0v3.27h0c-.19,1.67-3.43,7.38-4.07,8.49a.27.27,0,0,0-.11.19c0,.56,2.79,1,6.23,1s6.22-.46,6.22-1A.21.21,0,0,0,187.84,209.3Z" class="cls-32"></path><ellipse ry="0.56" rx="3.68" cy="204.4" cx="181.9" class="cls-33"></ellipse><ellipse ry="1.01" rx="6.22" cy="209.45" cx="181.69" class="cls-34"></ellipse></g><g id="man1"><path d="M101.63,155.25l.05-.12C101.65,155.3,101.63,155.25,101.63,155.25Z" class="cls-35"></path><path d="M95.3,86.1s-1.75-1.71-2.84-3c0,0-.27,1.64-1.23,1.37s-2.44-.88-3.36.55-5.13-.42-5.13-.42L80,84.71l5.13,46.22,13.49-2S99.23,90.39,95.3,86.1Z" class="cls-21"></path><path d="M91.56,124.94s-3.07-8.58-2.25-17.07,1.57-19.51.48-20.73c0,0,.83.82.79,1.36,0,0,1.3-1.55,1-2.79s-2.15-2.19-4.17-.83-6.77-.41-6.77-.41,7.16,24.3,6.67,30.35-.43,10.12-.43,10.12Z" class="cls-36"></path><path d="M77.36,187.9c.92-1.38,7.09-.87,7.09-.87s4.62,3.07,5.13,3.23,0,3-4.38,2.55-3.85-1.66-6.16-1.44S76.44,189.28,77.36,187.9Z" class="cls-23"></path><path d="M89.09,181.93c1.63-.1,5.46,1.33,5.46,1.33a23.45,23.45,0,0,0,3.38,2c1.19.46,1.66.72,1.24,1.32s-3.11,1-5.13.35-5.49-.81-6.05-1.37S87.46,182,89.09,181.93Z" class="cls-23"></path><path d="M82.08,80.91a23.69,23.69,0,0,1,6.2,0c3,.45,3.17.93,3.27,1.36a6.49,6.49,0,0,1-.51,2H89.43l-2,.7s-3.66-.25-4.64-1.6A2.93,2.93,0,0,1,82.08,80.91Z" class="cls-2"></path><path d="M96.38,145.82v37.53s-2.61,2.42-5.3.87l-3.52-2-.27-55.35s8.65-7.15,10.84.64C99,130.49,96.79,137.84,96.38,145.82Z" class="cls-23"></path><path d="M90.89,124.64s-3.2,19.84-3.14,35.84c0,13.55-1.2,26.84-2.56,27.16,0,0-3.21,1.79-5.66,1.52a4.86,4.86,0,0,1-3.29-1.35V123Z" class="cls-24"></path><path d="M97.75,123s-6.47,1.55-10.46.61v3.27s6.68.56,9.73-1.56S97.75,123,97.75,123Z" class="cls-23"></path><path d="M128,86.46s.41-2.08,1.17-2.64a4.47,4.47,0,0,0,1.57-2.22c.18-.71.69-.18.55,1s-.33,1.3-.33,1.3a7.16,7.16,0,0,0,3.5-1.42c1.61-1.27.19,1.18-.76,1.84l-.95.66a26.71,26.71,0,0,0,3.15-1.79c1-.76,1.09-.5.94.18S134.51,85.66,134,86a9.59,9.59,0,0,0,2.64-.9c.76-.52.57.8-.72,1.51a15.18,15.18,0,0,1-2,.94,6.88,6.88,0,0,0,1.82-.25c1-.27,1.39.34.33,1s-3.91,1.61-4.5,2-1,1.35-2.8.32S128,86.46,128,86.46Z" class="cls-20"></path><path d="M128.29,85.9s-17.34,6-21.06,5.16c-3-.66-10.92-5.52-13.74-7.3a8.93,8.93,0,0,0-1-.66s3.77,7.52,3.94,22.66-2,50.37-2,50.37,5.65.42,6.87-3.55c.87-2.8,3.57-32.3-.21-52.22,1.22.13,2.75.26,4.68.37,9.5.54,24.42-9.59,24.42-9.59C130.41,86.58,128.29,85.9,128.29,85.9Z" class="cls-9"></path><path d="M124.59,94.53c-5.21,2.89-13,6.53-18.82,6.2-1.93-.11-3.46-.24-4.67-.37,2.85,15.06,2,35.59,1,45.92.11-3.72.23-9,.34-16.42.38-26-3-37.33-3.13-37.74.14.22,2.55,3.89,11.16,4.78C115.32,97.39,120.67,96,124.59,94.53Z" class="cls-37"></path><g class="cls-38"><path d="M130.19,91.14s-2.27,1.54-5.6,3.39c-5.21,2.89-13,6.53-18.82,6.2-1.93-.11-3.46-.24-4.67-.37,2.85,15.06,2,35.59,1,45.92a46.9,46.9,0,0,1-.84,6.31c-1.22,4-6.87,3.54-6.87,3.54s2.15-35.23,2-50.37S92.46,83.1,92.46,83.1a10.39,10.39,0,0,1,1,.65c2.82,1.79,10.71,6.65,13.74,7.31,3.72.81,21-5.16,21-5.16S130.41,86.58,130.19,91.14Z" class="cls-39"></path></g><polygon points="105.67 111.65 97.64 116.35 97.95 99.76 107.32 96.02 105.67 111.65" class="cls-21"></polygon><path d="M95.11,114.39A3.53,3.53,0,0,0,97,112.74c.52-1.16,1.82-2.33,2.66-2.37a8.18,8.18,0,0,0,1.88-.26c.43-.13.14.73-1.8,1.6a11,11,0,0,0,3.26-.3c1.58-.44,1.66-1,2-.74s-.95,1.51-1.68,1.86a3.93,3.93,0,0,0,1.43-.52c.42-.35.52.49-1.14,2.77s-5.21,4.83-8.49,3.45S95.11,114.39,95.11,114.39Z" class="cls-20"></path><path d="M80,83.1S68.22,88,68.24,91.88s1.19,38.24.68,48.3-1.57,18.91-1.57,18.91,13.07,3.81,20.52,0c0,0,1.46-44-1.12-56.85S82.33,85.07,80,83.1Z" class="cls-9"></path><g class="cls-40"><path d="M87.87,159.09a20.12,20.12,0,0,1-9.46,1.68c-1,0-2-.09-3-.19A50.17,50.17,0,0,1,68,159.27l-.68-.18s1.07-8.85,1.57-18.91c.22-4.31.13-13.08,0-22-.23-11.9-.62-24.07-.63-26.3a3.38,3.38,0,0,1,.94-2.09,8.76,8.76,0,0,1,1.18-1.18C73.74,85.69,80,83.1,80,83.1c2.35,2,4.18,6.34,6.77,19.14S87.87,159.09,87.87,159.09Z" class="cls-41"></path></g><path d="M93.45,80a3.68,3.68,0,0,1-2.88,1.42h0c.08.3.18.65.27,1s.13.6.19.88c.12.69-1.08.56-2.25.93-.75.24-1.25,1.18-2.16,1-2.35-.44-3.11-1.59-3.29-2s.15-2.52-.1-4.25a5.85,5.85,0,0,1-1.7-4.1c0-4.08,1.82-9.73,5.42-9.73s7.43,2.24,7.43,6.33C94.38,74,94.73,77.92,93.45,80Z" class="cls-20"></path><path d="M82.39,80.87a5.41,5.41,0,0,0,3.47,3.26c2.59.67,2.92.08,2.92.08a7,7,0,0,0-.5,3.22l.17,1.73s-7.18-3.32-7.83-4.69L80,83.1A8.35,8.35,0,0,0,81.22,82C81.63,81.46,81.74,80.88,82.39,80.87Z" class="cls-9"></path><path d="M91.37,81.82a2.61,2.61,0,0,1-.82,1.76,3.88,3.88,0,0,1-1.77.63s2.23.73,2.2,2.06l0,1.33s2-2.64,1.5-4.49a1.84,1.84,0,0,0-.49-.67A1.86,1.86,0,0,0,91.37,81.82Z" class="cls-9"></path><path d="M87.34,72.72s7,.3,9.08-3-.36-5.36-.36-5.36.47,1.1-.19,1.66a2.08,2.08,0,0,0-1.45-2.21s-.14.4-.3,1c0,0-1.93-2.46-6.53-2S81,67.67,81.22,69.09A3.83,3.83,0,0,0,80,70.57c-.35.87-1,6.17,2,8l1.64,1.23V77.27a4,4,0,0,1-1.33-2.61c0-1.38,2-1.79,2.53.3C84.87,75,84.69,72.82,87.34,72.72Z" class="cls-24"></path><path d="M72.17,139.18c-1.62,10.43-3.52,16.55-4.14,20.09l-.68-.18s1.07-8.85,1.57-18.91c.22-4.31.13-13.08,0-22,2-12.83,4.52-23.88,3.27-25.12a38,38,0,0,1-3-3.27,8.76,8.76,0,0,1,1.18-1.18c.85.59,1.94,1.42,3.31,2.52,0,0,4.42,4,6,13.78S74.35,125.16,72.17,139.18Z" class="cls-42"></path><path d="M69.47,89.84s6.12,2,7.07,8.57-1.53,9.8,1.07,11.16,19,3.66,19,3.66,1.23,3.78-.73,5.5c0,0-22,1.68-26.34,0s-4.71-6.58-4.57-9.21S65.11,90.12,69.47,89.84Z" class="cls-9"></path><g class="cls-40"><path d="M69.47,89.84s6.12,2,7.07,8.57-1.53,9.8,1.07,11.16,19,3.66,19,3.66,1.23,3.78-.73,5.5c0,0-22,1.68-26.34,0s-4.71-6.58-4.57-9.21S65.11,90.12,69.47,89.84Z" class="cls-43"></path></g><path d="M90.84,82.46c-2.45.48-4-1.78-4-1.78a10.52,10.52,0,0,0,3.77.77C90.65,81.75,90.75,82.1,90.84,82.46Z" class="cls-44"></path><path d="M78.77,149.33c.2-1.31.33-2.33.4-3.13-.09,3.69-.32,10.58-.76,14.57-1,0-2-.09-3-.19A72.66,72.66,0,0,0,78.77,149.33Z" class="cls-45"></path><path d="M79.17,146.2c0-1.52.06-2.5.06-2.5A9.58,9.58,0,0,1,79.17,146.2Z" class="cls-46"></path></g><g id="monitor"><path d="M214.32,23.11l4.49-2.51a2.8,2.8,0,0,1,2.76,0l75.57,43.64a2.68,2.68,0,0,1,1.35,2.34v53.7a2.14,2.14,0,0,1-1,1.83l-4.77,2.94L281,112.88Z" class="cls-24"></path><path d="M212.07,78.51V25.92a2.87,2.87,0,0,1,4.31-2.49l74,42.73,2.31,1.33A2.87,2.87,0,0,1,294.14,70v52.59a2.88,2.88,0,0,1-4.32,2.49L213.51,81A2.89,2.89,0,0,1,212.07,78.51Z" class="cls-21"></path><path d="M212.07,78.51V25.92a2.87,2.87,0,0,1,4.31-2.49l74,42.73,2.31,1.33A2.87,2.87,0,0,1,294.14,70v52.59a2.88,2.88,0,0,1-4.32,2.49L213.51,81A2.89,2.89,0,0,1,212.07,78.51Z" class="cls-47"></path><polygon points="220.15 76.4 220.15 76.95 223.83 79.07 223.83 49.36 220.15 47.23 220.15 76.4" class="cls-21"></polygon><polygon points="226.85 80.38 226.85 80.83 230.53 82.93 230.53 58.29 226.85 56.19 226.85 80.38" class="cls-21"></polygon><polygon points="232.6 65.97 232.6 83.83 232.6 84.16 236.69 86.5 236.69 68.13 232.6 65.97" class="cls-21"></polygon><polygon points="274.91 94.58 246.08 77.93 246.08 80.14 274.91 96.67 274.91 94.58" class="cls-9"></polygon><polygon points="271.61 96.67 246.08 81.83 246.08 84.04 271.61 98.77 271.61 96.67" class="cls-9"></polygon><polygon points="246.08 85.81 246.08 88.02 281.11 108.27 281.11 106.18 246.08 85.81" class="cls-9"></polygon><polygon points="246.08 91.58 260.5 99.81 260.5 97.72 246.08 89.37 246.08 91.58" class="cls-9"></polygon><path d="M255.48,66.85l7.44-2.17c1.67,5.73-.31,11.42-4.4,12.62S249.7,74.75,248,69s.32-11.42,4.4-12.61c3.11-.9,6.7,1,9,4.77Z" class="cls-9"></path><path d="M272.2,80.32,276.71,79c1,3.47-.19,6.92-2.66,7.65s-5.35-1.55-6.36-5,.19-6.92,2.67-7.64c2.25-.65,4.86,1.14,6.07,4.18Z" class="cls-3"></path></g></g></g></svg>