<svg viewBox="0 0 278.66 259.45" xmlns:xlink="http://www.w3.org/1999/xlink" xmlns="http://www.w3.org/2000/svg"><defs><style>.cls-1{opacity:0.46;}.cls-2{fill:#cde9f9;}.cls-3{fill:url(#未命名的渐变_19);}.cls-4{fill:#a17194;}.cls-5{fill:url(#未命名的渐变_19-2);}.cls-6{fill:url(#未命名的渐变_3);}.cls-7{fill:url(#未命名的渐变_19-3);}.cls-8{fill:#3c7fbe;}.cls-9{fill:url(#未命名的渐变_23);}.cls-10{fill:#bd8aae;}.cls-11{fill:#2a2f6d;}.cls-12{fill:url(#未命名的渐变_22);}.cls-13{fill:url(#未命名的渐变_30);}.cls-14{fill:#aecfdc;}.cls-15{fill:#fde0d9;}.cls-16{fill:url(#未命名的渐变_30-2);}.cls-17{fill:#ecbfb9;}.cls-18{opacity:0.1;}.cls-19{fill:#fff;}.cls-20{fill:#1c3f75;}.cls-21{fill:url(#未命名的渐变_37);}.cls-22{fill:#65939e;}.cls-23{fill:url(#未命名的渐变_37-2);}.cls-24{fill:#fdfefe;}.cls-25{opacity:0.5;}.cls-26{fill:url(#未命名的渐变_18);}.cls-27{fill:url(#未命名的渐变_19-4);}.cls-28{fill:url(#未命名的渐变_37-3);}.cls-29{fill:url(#未命名的渐变_37-4);}.cls-30{fill:url(#未命名的渐变_21);}.cls-31{fill:#e7f6fd;}.cls-32{fill:url(#未命名的渐变_37-5);}.cls-33{fill:url(#未命名的渐变_37-6);}.cls-34{opacity:0.44;}.cls-35{fill:url(#未命名的渐变_32);}.cls-36{fill:url(#未命名的渐变_29);}.cls-37{fill:url(#未命名的渐变_30-3);}.cls-38{fill:url(#未命名的渐变_25);}.cls-39{fill:url(#未命名的渐变_32-2);}.cls-40{fill:url(#未命名的渐变_32-3);}.cls-41{fill:url(#未命名的渐变_29-2);}.cls-42{fill:url(#未命名的渐变_30-4);}.cls-43{fill:url(#未命名的渐变_25-2);}.cls-44{fill:url(#未命名的渐变_32-4);}.cls-45{fill:url(#未命名的渐变_32-5);}.cls-46{fill:url(#未命名的渐变_29-3);}.cls-47{fill:url(#未命名的渐变_30-5);}.cls-48{fill:url(#未命名的渐变_25-3);}.cls-49{fill:url(#未命名的渐变_32-6);}</style><linearGradient gradientUnits="userSpaceOnUse" gradientTransform="matrix(1, 0, 0, -1, 0, 1038.96)" y2="859" x2="206.08" y1="859" x1="81.65" id="未命名的渐变_19"><stop stop-color="#6b385f" offset="0"></stop><stop stop-opacity="0.73" stop-color="#6f3b62" offset="0.42"></stop><stop stop-opacity="0.6" stop-color="#764268" offset="0.52"></stop><stop stop-opacity="0.39" stop-color="#8c567a" offset="0.69"></stop><stop stop-opacity="0.11" stop-color="#b5799b" offset="0.91"></stop><stop stop-opacity="0" stop-color="#cc8dae" offset="1"></stop></linearGradient><linearGradient xlink:href="#未命名的渐变_19" y2="912.77" x2="79.65" y1="912.77" x1="70.58" id="未命名的渐变_19-2"></linearGradient><linearGradient gradientUnits="userSpaceOnUse" gradientTransform="matrix(1, 0, 0, -1, 0, 1038.96)" y2="927.08" x2="98.5" y1="927.08" x1="73.89" id="未命名的渐变_3"><stop stop-color="#6b385f" offset="0.26"></stop><stop stop-opacity="0.73" stop-color="#6f3b62" offset="0.65"></stop><stop stop-opacity="0.6" stop-color="#764268" offset="0.71"></stop><stop stop-opacity="0.39" stop-color="#8c567a" offset="0.81"></stop><stop stop-opacity="0.11" stop-color="#b5799b" offset="0.95"></stop><stop stop-opacity="0" stop-color="#cc8dae" offset="1"></stop></linearGradient><linearGradient xlink:href="#未命名的渐变_19" y2="956.83" x2="108.8" y1="956.83" x1="104.87" id="未命名的渐变_19-3"></linearGradient><linearGradient gradientUnits="userSpaceOnUse" gradientTransform="matrix(1, 0, 0, -1, 0, 1038.96)" y2="920.33" x2="120.22" y1="920.33" x1="82.35" id="未命名的渐变_23"><stop stop-color="#1d4989" offset="0.13"></stop><stop stop-opacity="0" stop-color="#fff" offset="0.94"></stop></linearGradient><linearGradient gradientUnits="userSpaceOnUse" gradientTransform="matrix(1, 0, 0, -1, 0, 1038.96)" y2="932.84" x2="119.57" y1="932.84" x1="94.71" id="未命名的渐变_22"><stop stop-color="#1d4989" offset="0.34"></stop><stop stop-opacity="0.47" stop-color="#2575ae" offset="0.98"></stop><stop stop-opacity="0.3" stop-color="#2679b1" offset="1"></stop><stop stop-opacity="0" stop-color="#29abe2" offset="1"></stop></linearGradient><linearGradient gradientUnits="userSpaceOnUse" gradientTransform="matrix(1, 0, 0, -1, 0, 1038.96)" y2="917.12" x2="106.05" y1="917.12" x1="84.91" id="未命名的渐变_30"><stop stop-color="#1d4989" offset="0.34"></stop><stop stop-opacity="0" stop-color="#29abe2" offset="1"></stop></linearGradient><linearGradient xlink:href="#未命名的渐变_30" y2="941.83" x2="104.82" y1="941.83" x1="86.13" id="未命名的渐变_30-2"></linearGradient><linearGradient gradientUnits="userSpaceOnUse" gradientTransform="matrix(1, 0, 0, -1, 0, 1038.96)" y2="910.34" x2="82.79" y1="910.34" x1="69.73" id="未命名的渐变_37"><stop stop-color="#28a8e0" offset="0.06"></stop><stop stop-opacity="0" stop-color="#29abe2" offset="1"></stop></linearGradient><linearGradient xlink:href="#未命名的渐变_37" y2="924.6" x2="47.84" y1="924.6" x1="9.54" id="未命名的渐变_37-2"></linearGradient><linearGradient gradientUnits="userSpaceOnUse" gradientTransform="matrix(1, 0, 0, -1, 0, 1038.96)" y2="920.7" x2="27.97" y1="920.7" x1="11.76" id="未命名的渐变_18"><stop stop-color="#fff" offset="0.42"></stop><stop stop-opacity="0" stop-color="#2484c6" offset="1"></stop></linearGradient><linearGradient xlink:href="#未命名的渐变_19" y2="895.44" x2="19.35" y1="895.44" x1="10.17" id="未命名的渐变_19-4"></linearGradient><linearGradient xlink:href="#未命名的渐变_37" y2="889.4" x2="57.69" y1="889.4" x1="44.62" id="未命名的渐变_37-3"></linearGradient><linearGradient xlink:href="#未命名的渐变_37" y2="969.79" x2="146.07" y1="969.79" x1="124.45" id="未命名的渐变_37-4"></linearGradient><linearGradient gradientUnits="userSpaceOnUse" gradientTransform="matrix(1, 0, 0, -1, 0, 1038.96)" y2="933.64" x2="207.94" y1="933.64" x1="162.47" id="未命名的渐变_21"><stop stop-opacity="0" stop-color="#29abe2" offset="0"></stop><stop stop-opacity="0.88" stop-color="#20439c" offset="0.27"></stop><stop stop-color="#21409a" offset="0.75"></stop></linearGradient><linearGradient xlink:href="#未命名的渐变_37" y2="1002.66" x2="278.66" y1="1002.66" x1="157.42" id="未命名的渐变_37-5"></linearGradient><linearGradient xlink:href="#未命名的渐变_37" y2="991.18" x2="278.66" y1="991.18" x1="157.42" id="未命名的渐变_37-6"></linearGradient><linearGradient gradientUnits="userSpaceOnUse" gradientTransform="matrix(1, 0, 0, -1, 0, 1038.96)" y2="879.45" x2="112.25" y1="879.45" x1="71.84" id="未命名的渐变_32"><stop stop-opacity="0" stop-color="#29abe2" offset="0.31"></stop><stop stop-opacity="0.86" stop-color="#28a8e0" offset="0.69"></stop><stop stop-color="#28a8e0" offset="0.9"></stop></linearGradient><linearGradient gradientUnits="userSpaceOnUse" gradientTransform="matrix(1, 0, 0, -1, 0, 1038.96)" y2="886.32" x2="107.91" y1="886.32" x1="76.16" id="未命名的渐变_29"><stop stop-color="#fff" offset="0"></stop><stop stop-opacity="0" stop-color="#2484c6" offset="0.91"></stop></linearGradient><linearGradient xlink:href="#未命名的渐变_30" y2="889.77" x2="108.46" y1="889.77" x1="75.72" id="未命名的渐变_30-3"></linearGradient><linearGradient gradientUnits="userSpaceOnUse" gradientTransform="matrix(1, 0, 0, -1, 0, 1038.96)" y2="885.78" x2="100.02" y1="885.78" x1="84.4" id="未命名的渐变_25"><stop stop-color="#bd8aae" offset="0"></stop><stop stop-opacity="0" stop-color="#2484c6" offset="1"></stop></linearGradient><linearGradient xlink:href="#未命名的渐变_32" y2="885.78" x2="100.02" y1="885.78" x1="84.4" id="未命名的渐变_32-2"></linearGradient><linearGradient xlink:href="#未命名的渐变_32" y2="909.71" x2="157.54" y1="909.71" x1="117.12" id="未命名的渐变_32-3"></linearGradient><linearGradient xlink:href="#未命名的渐变_29" y2="915.68" x2="151.82" y1="915.68" x1="120.07" id="未命名的渐变_29-2"></linearGradient><linearGradient xlink:href="#未命名的渐变_30" y2="919.12" x2="152.37" y1="919.12" x1="119.63" id="未命名的渐变_30-4"></linearGradient><linearGradient xlink:href="#未命名的渐变_25" y2="915.14" x2="143.93" y1="915.14" x1="128.31" id="未命名的渐变_25-2"></linearGradient><linearGradient xlink:href="#未命名的渐变_32" y2="915.14" x2="143.93" y1="915.14" x1="128.31" id="未命名的渐变_32-4"></linearGradient><linearGradient xlink:href="#未命名的渐变_32" y2="939.25" x2="202.14" y1="939.25" x1="161.72" id="未命名的渐变_32-5"></linearGradient><linearGradient xlink:href="#未命名的渐变_29" y2="946.12" x2="197.79" y1="946.12" x1="166.04" id="未命名的渐变_29-3"></linearGradient><linearGradient xlink:href="#未命名的渐变_30" y2="949.57" x2="198.35" y1="949.57" x1="165.6" id="未命名的渐变_30-5"></linearGradient><linearGradient xlink:href="#未命名的渐变_25" y2="945.58" x2="189.9" y1="945.58" x1="174.28" id="未命名的渐变_25-3"></linearGradient><linearGradient xlink:href="#未命名的渐变_32" y2="945.58" x2="189.9" y1="945.58" x1="174.28" id="未命名的渐变_32-6"></linearGradient></defs><g id="图层_2"><g id="图层_1-2"><g id="flooring"><g class="cls-1"><path d="M108,256.91,2.86,188.35a6.89,6.89,0,0,1,0-11.17L119.5,101.13a11.37,11.37,0,0,1,12.58,0l107.49,69.77a6.89,6.89,0,0,1,0,11.18L124.8,256.91A15.18,15.18,0,0,1,108,256.91Z" class="cls-2"></path></g><polyline points="81.65 232.16 206.08 150.6 206.08 127.76 81.65 209 81.65 232.16" class="cls-3"></polyline></g><g id="sidedash"><g class="cls-1"><path d="M89.07,84,48.85,110.14c-1.53,1-3.43-.25-3.43-2.24V93.84a2.66,2.66,0,0,1,1.14-2.24L86.79,65.44c1.52-1,3.43.25,3.43,2.24V81.74A2.65,2.65,0,0,1,89.07,84Z" class="cls-2"></path></g><g class="cls-1"><path d="M138.79,62.28,98.56,88.44c-1.52,1-3.43-.25-3.43-2.23V72.14a2.65,2.65,0,0,1,1.15-2.23L136.5,43.75c1.53-1,3.43.25,3.43,2.23V60.05A2.67,2.67,0,0,1,138.79,62.28Z" class="cls-2"></path></g><g class="cls-1"><path d="M142.55,33.92,102.32,60.08c-1.52,1-3.43-.25-3.43-2.24V43.78A2.65,2.65,0,0,1,100,41.54l40.22-26.16c1.53-1,3.43.25,3.43,2.24V31.68A2.68,2.68,0,0,1,142.55,33.92Z" class="cls-2"></path></g></g><g id="lady"><path d="M109.6,77.63a10.61,10.61,0,0,1-.8,4.71c-.85,1.76-2.28,2.57-3.93,4.14a16.7,16.7,0,0,0-2.15,2.5c-3.57,5.11,1.15,7.21,1.15,7.21s3.47,23.39-12.89,37.63l-.19.15a22.84,22.84,0,0,1-7.1,4.32,13.21,13.21,0,0,1-4.6.82,9.64,9.64,0,0,1-5.74-1.87c-5-3.68-6.12-12.09-.13-18.71C84,106.64,86.58,98.66,85.58,91.43c-1.2-8.8,5.84-14.65,8.65-16.29,4.65-2.73,5.64-4.22,9.85-3.86C109.4,71.73,109.6,77.63,109.6,77.63Z" class="cls-4"></path><path d="M79.09,139.11a9.64,9.64,0,0,1-5.74-1.87c-1.59-1.68-2.59-4.24-2.76-8.05-.36-7.78,9.06-15.91,9.06-15.91C72.28,128.65,76.93,136.56,79.09,139.11Z" class="cls-5"></path><path d="M98.41,90.59c-.36,1.51-6,34.22-7.62,43.38a22.84,22.84,0,0,1-7.1,4.32c-3.24.11-6.88-1.18-9-6.49C70.19,120.61,86.17,108,88,97.35s9.59-11.89,9.59-11.89S98.83,88.83,98.41,90.59Z" class="cls-6"></path><path d="M108.8,82.34c-.85,1.76-2.28,2.57-3.93,4.14l.54-4s2.73-2.74,2.82-4.48C108.29,76.89,108.82,79.75,108.8,82.34Z" class="cls-7"></path><path d="M117.44,95.34s-2.13,5.9-2.75,8.08-1,1.44-1,1.44l-3.28-4.37A30.17,30.17,0,0,0,106.86,96l-.47-.46a9.57,9.57,0,0,0-1.23-1l-.32-.25s0,0,0,0A3.51,3.51,0,0,0,102.54,93a3.71,3.71,0,0,0-1.62.06l-4.21,1.42c-3.36,2.19-7.91,4.74-10.58,6.2a2.28,2.28,0,0,0-.7.38,1.14,1.14,0,0,0-.16.15h0l-.16.16-.11.12-.1.12-.1.14c-3,4.07-2.58,17.69-2.12,21.72a8.34,8.34,0,0,0,.86,3.36,4.09,4.09,0,0,0,.2.42,3.23,3.23,0,0,0,2.84,1.91,4.65,4.65,0,0,0,1.86-.54,99.19,99.19,0,0,1-.83,9.93c-.23,1.68-2.68,2.33-2.69,3.28V142a8.32,8.32,0,0,0,.18,2.3l11.81-8.73,9-6.69,1.52-1.12a3.17,3.17,0,0,1-1.32.48h-.1c-.59,0-1.51,2.21-1.5.88,0-.12-.46-2-.47-2.26a37.31,37.31,0,0,1,1.2-7.4q.09-.36.18-.75c.38-1.7.78-4,1.5-6.47a25,25,0,0,1,1.15-3.16l.25.81a16.33,16.33,0,0,0,5.56,3.07c2.74.66,4-1.82,4.25-3.26.18-.86.87-5.17,1.4-8.52l.65-4.11A4.06,4.06,0,0,1,117.44,95.34Z" class="cls-8"></path><path d="M120.22,97.07l-.65,4.11c-.53,3.35-1.22,7.67-1.4,8.52-.3,1.44-1.51,3.92-4.25,3.26a16.33,16.33,0,0,1-5.56-3.07l-.25-.81a25,25,0,0,0-1.15,3.16c-.72,2.42-1.12,4.77-1.5,6.47q-.09.39-.18.75a37.31,37.31,0,0,0-1.2,7.4c0,.22.47,2.14.47,2.26,0,1.33.91-.88,1.5-.88h.1a3.17,3.17,0,0,0,1.32-.48L106,128.88l-9,6.69L85.09,144.3a8.32,8.32,0,0,1-.18-2.3v-.14c0-.84,1.94-1.45,2.53-2.74a2,2,0,0,0,.16-.54,98.5,98.5,0,0,0,.83-9.82v-.11a4.65,4.65,0,0,1-1.86.54,3.23,3.23,0,0,1-2.84-1.91,4.09,4.09,0,0,1-.2-.42,8.34,8.34,0,0,1-.86-3.36,76.84,76.84,0,0,1-.22-11c.22-4.37.87-8.73,2.34-10.75l.1-.14.1-.12.11-.12.16-.16h0a1.14,1.14,0,0,1,.16-.15,2.28,2.28,0,0,1,.7-.38c2.67-1.46,7.22-4,10.58-6.2l4.21-1.42a3.71,3.71,0,0,1,1.62-.06,3.51,3.51,0,0,1,2.28,1.15s0,0,0,0l.32.25a9.57,9.57,0,0,1,1.23,1l.47.46a30.17,30.17,0,0,1,3.58,4.54l3.28,4.37s.35.75,1-1.44,2.75-8.08,2.75-8.08A4.06,4.06,0,0,0,120.22,97.07Z" class="cls-9"></path><path d="M108.68,126.86a8,8,0,0,1-1.21.9Z" class="cls-10"></path><path d="M94.71,115.16a2.61,2.61,0,0,1-.85,0S93.53,115.11,94.71,115.16Z" class="cls-11"></path><path d="M119.57,101.18c-.53,3.35-1.22,7.67-1.4,8.52-.3,1.44-1.51,3.92-4.25,3.26a16.33,16.33,0,0,1-5.56-3.07l-.25-.81a25,25,0,0,0-1.15,3.16,9.78,9.78,0,0,0-1.54-.14c-.14.07-2.21.11-2.21.11s-.47-.94-1.83-.07-4.57,3.15-6.25,3l-.42,0a9.39,9.39,0,0,0,4-1.89c3.11-2.28,5-3.79,7.23-3.75s-1-1.59-1-1.59a3.66,3.66,0,0,0,1.5-3.22c-.1-2.19-1.81-6.61-2.81-7.54,0,0,1.06-.89,2.34,1.85,0,0,2.52,9.7,7.64,9.51C116.94,108.42,118.73,104.17,119.57,101.18Z" class="cls-12"></path><path d="M106.05,128.24a2.32,2.32,0,0,1-.87,1.09c-2,1.29-17.49,10.94-20.27,12.67a.65.65,0,0,1,0-.14c0-1,2.46-1.6,2.68-3.28a96.15,96.15,0,0,0,.84-9.93c.32-.13.64-.26.95-.36,4.41-1.36,8.14-2.89,9-3.85s.8-.4.29-1.94a7.3,7.3,0,0,1,.08-3.17c-3,.83-7.61,1.58-8.15,1s-.2-6.66.8-12.64a5.58,5.58,0,0,0-2.49-6.07,4.82,4.82,0,0,1,3.53,5.13c-.35,4.15-.74,8.9,0,11.12,0,0,.4,1.6,4.31.61,3.24-.83,7.24-1.17,8.66.17-.06.27-.12.52-.18.76a37.31,37.31,0,0,0-1.2,7.4c0,.22.47,2.14.47,2.26,0,1.32.91-.88,1.5-.88Z" class="cls-13"></path><polygon points="98.75 124.05 103.11 108.03 113.21 101.44 110.07 116.66 98.75 124.05" class="cls-14"></polygon><path d="M98.8,119.52a6,6,0,0,1,2.76-2.9c1.91-.84.2,1.09.2,1.09s.86,0,1.76-1.31,0,1.08-.35,1.56a2.81,2.81,0,0,0,1.1-1.11c.45-.79.6.14,0,1.21a6.14,6.14,0,0,1-1,1.46,5,5,0,0,0,1.2-.85c.5-.51.2.77-.56,1.48l.81-.46s.28.23-.81,1.19-3.06,2.73-4.37,2.61-.95,0-.95,0A3.62,3.62,0,0,1,98.8,119.52Z" class="cls-15"></path><path d="M117.46,96s-.74-2.12-.33-3a5.46,5.46,0,0,0,.53-1.8c0-.24.47.26.4.84l-.06.58a3.7,3.7,0,0,0,.8-1.48c.26-.94.65-1.75.77-1.36a5.39,5.39,0,0,1-.15,1.65,4.41,4.41,0,0,0,1-1.75c.05-.69.72-.72.57.13a7.88,7.88,0,0,1-.57,1.73,6.39,6.39,0,0,0,1-1.36c.2-.51.6-.31.38.31s-.68,1.55-.68,1.55a3,3,0,0,0,1-.84c.23-.42.8,0,.23.84A7.76,7.76,0,0,0,121,94.67c-.13.83-.22,2.37-1.13,2.65S117.46,96,117.46,96Z" class="cls-15"></path><path d="M104.82,94.18c-2.81-2.16-3.86.28-4.56,1.3s-7.44,3.26-8.17,3.89-3.15,2.3-3.59,1.84-2.37-.5-2.37-.5c2.66-1.46,7.22-4,10.58-6.2l4.21-1.41a3.47,3.47,0,0,1,1.61-.07A3.52,3.52,0,0,1,104.82,94.18Z" class="cls-16"></path><path d="M104.55,83.84c-.67.6-.91-.34-.91-.34A4.71,4.71,0,0,1,102,84.93c-.81.27-.23-1-.23-1s-1.38,1.33-1.88,1.36-.17-.94-.17-.94a3,3,0,0,0-1.14,1.4L98.08,87a2.35,2.35,0,0,0-.47-1.52c-.5-.45-.8,2.5-.3,3.14l.5.65s-2.53,6-4.07,7.06a1.33,1.33,0,0,1-.14.19,8.91,8.91,0,0,0,3.13,2.15h0a5,5,0,0,0,2-2.26.26.26,0,0,0,0-.11l.06-.5.31-2.5v0h0a5.52,5.52,0,0,0,3.81.09c2-.66,2.27-6.88,2.27-6.88.12-1.32.18-2.71.2-3.92A5.21,5.21,0,0,1,104.55,83.84Z" class="cls-15"></path><path d="M99.12,93.25v0l-.31,2.5A7.93,7.93,0,0,1,98,92.35,3.48,3.48,0,0,0,99.12,93.25Z" class="cls-17"></path><path d="M98,98.77a2.56,2.56,0,0,1-1.27-.12A8.91,8.91,0,0,1,93.6,96.5l1.88-.73h3.33S100,98.4,98,98.77Z" class="cls-15"></path><g class="cls-18"><path d="M88.94,101.67s2.25,1.41,1.59,6.71-1.78,12.23-.46,12.83,7.33-1.45,7.33-1.45-6.34,1.44-6.77.62-.27-3.91,0-6.25,1.47-7.68.74-9.26A12.94,12.94,0,0,0,88.94,101.67Z" class="cls-19"></path></g><path d="M88.43,128.76v-.11a4.65,4.65,0,0,1-1.86.54,3.23,3.23,0,0,1-2.84-1.91,4.09,4.09,0,0,1-.2-.42,8.34,8.34,0,0,1-.86-3.36,76.84,76.84,0,0,1-.22-11c.19,3.7.72,8.22,2.07,10.47,2.51,4.17,6.27,3.35,8.88,2.76s4.92-1.29,5-1.31a39.64,39.64,0,0,1-4.27,2.2C92.4,127.42,90.13,128.13,88.43,128.76Z" class="cls-20"></path><path d="M100.86,130.39l-13.37,8.73h0a2,2,0,0,0,.16-.54,98.5,98.5,0,0,0,.83-9.82v-.11l3.73-1.22a3.76,3.76,0,0,0,1.89,3.77C96.33,132.56,100.66,130.49,100.86,130.39Z" class="cls-20"></path></g><g id="robot2"><path d="M60.48,138.53a17,17,0,0,1-3.68-.4,26.85,26.85,0,0,1-18.47-14.34,2.56,2.56,0,0,1,1.14-3.49l1.82-.74-2,.83.2-.08a2,2,0,0,1,2.62,1.09,22.5,22.5,0,0,0,15.55,11.95c6.18,1.36,11.41-2.11,13.83-4.14a2,2,0,0,1,2.84.24h0a2.66,2.66,0,0,1-.26,3.67C71.5,135.25,66.6,138.53,60.48,138.53Z" class="cls-2"></path><ellipse ry="7.73" rx="4.59" cy="122.58" cx="39.86" class="cls-14"></ellipse><path d="M75.61,120.44s-4.93,2.61-5.74,7.26,2.06,9.38,5.74,9.1,7.18-3.74,7.18-3.74L80.73,128s-2.32,2.8-4.47,2.92-3.6-4.68,1-6.87Z" class="cls-21"></path><path d="M48.18,151v-8.14l-5.89.8A21.63,21.63,0,0,0,33,141.79v.33c.55,0,1.08,0,1.61,0a48.33,48.33,0,0,0-7.17.47,30.69,30.69,0,0,1,5.56-.52v-.33h0a30.77,30.77,0,0,0-16.5,4.83c-.34.23-.67.46-1,.69l-6.33.86v9.69h0a8.65,8.65,0,0,0,4.25,6.89,20,20,0,0,0,10.93,2.81,30.68,30.68,0,0,0,16.5-4.83c4.82-3.18,7.32-7.23,7.3-10.94C48.2,151.3,48.18,151,48.18,151ZM20.39,166.94a21.4,21.4,0,0,1-2.51-.55C18.74,166.62,19.58,166.8,20.39,166.94Zm-2.61-.58-.1,0Z" class="cls-11"></path><ellipse transform="matrix(0.99, -0.13, 0.13, 0.99, -18.28, 4.81)" ry="8.78" rx="19.64" cy="146.09" cx="28.69" class="cls-22"></ellipse><path d="M24.38,158.54a19.85,19.85,0,0,1-10.75-2.75A8.18,8.18,0,0,1,9.55,149h0v-63h0v-.36c0-3.73,2.58-7.59,7.12-10.6A30.33,30.33,0,0,1,33,70.19,19.76,19.76,0,0,1,43.75,73a9.92,9.92,0,0,1,2.67,2.51l-.23.2c.21.3.38.59.55.87l.24-.17a7.41,7.41,0,0,1,.79,2.52v0h0V79a7.86,7.86,0,0,1,0,1.08v.11l0,0v63.12h0c-.08,3.67-2.67,7.47-7.12,10.41A30.33,30.33,0,0,1,24.38,158.54Z" class="cls-23"></path><path d="M33,70.58a19.43,19.43,0,0,1,10.58,2.71,9.7,9.7,0,0,1,2.56,2.4l-.23.2c.2.3.37.58.53.86l.24-.17a7,7,0,0,1,.74,2.31h0l0,.18a7,7,0,0,1,0,1v.21l0,0V143h0v.36c-.08,3.52-2.61,7.19-6.95,10.06a30,30,0,0,1-16.15,4.72,19.52,19.52,0,0,1-10.58-2.7A7.79,7.79,0,0,1,9.9,149h0V86.27h0v-.71c0-3.59,2.52-7.33,7-10.26A30,30,0,0,1,33,70.58h0m0-.79h0a30.77,30.77,0,0,0-16.5,4.83c-4.82,3.19-7.32,7.24-7.3,10.95h0V149a8.61,8.61,0,0,0,4.25,7.16,20,20,0,0,0,10.93,2.81,30.68,30.68,0,0,0,16.5-4.83c4.73-3.12,7.22-7.08,7.3-10.74V80.15a0,0,0,0,1,0,0,8.55,8.55,0,0,0,0-1.14,1.1,1.1,0,0,1,.06-.16h-.07a8.78,8.78,0,0,0-4.19-6.21A20,20,0,0,0,33,69.79Zm14,6.53c-.16-.28-.34-.57-.56-.9a7.07,7.07,0,0,1,.56.9Z" class="cls-24"></path><g class="cls-25"><path d="M11.76,147.61V85.7s3.44-6.27,9.35-5.6S28,84.58,28,84.58v68.91S16.32,163.21,11.76,147.61Z" class="cls-26"></path></g><ellipse ry="7.73" rx="4.59" cy="143.52" cx="14.76" class="cls-27"></ellipse><path d="M35.38,159.47a16.91,16.91,0,0,1-3.68-.4,26.87,26.87,0,0,1-18.48-14.34,2.57,2.57,0,0,1,1.15-3.49l1.81-.74-2,.83.2-.08A2,2,0,0,1,17,142.34a22.5,22.5,0,0,0,15.55,11.95c6.19,1.36,11.41-2.11,13.83-4.14a2,2,0,0,1,2.84.24h0a2.64,2.64,0,0,1-.25,3.66C46.39,156.19,41.49,159.47,35.38,159.47Z" class="cls-2"></path><path d="M50.51,141.38s-4.94,2.61-5.75,7.26,2.06,9.38,5.75,9.1S57.69,154,57.69,154l-2.06-5.08s-2.33,2.8-4.47,2.92-3.61-4.68,1-6.87Z" class="cls-28"></path><g class="cls-25"><path d="M32.1,149.06a1.38,1.38,0,0,0-1.33-1.45,1.5,1.5,0,0,0,0,3A1.45,1.45,0,0,0,32.1,149.06Z" class="cls-19"></path></g><g class="cls-25"><path d="M28,141.74a1.89,1.89,0,0,0-1.82-2,2,2,0,0,0,0,4.07A2,2,0,0,0,28,141.74Z" class="cls-19"></path></g><g class="cls-25"><path d="M32.1,132.26a2.76,2.76,0,0,0-2.67-2.9,3,3,0,0,0,0,6A2.91,2.91,0,0,0,32.1,132.26Z" class="cls-19"></path></g><path d="M35.18,121.26H31.33a1.62,1.62,0,0,1-1.5-1.7h0a1.62,1.62,0,0,1,1.5-1.7h3.85a1.61,1.61,0,0,1,1.5,1.7h0A1.61,1.61,0,0,1,35.18,121.26Z" class="cls-19"></path><path d="M44.81,121.26H43.29a1.58,1.58,0,0,1-1.46-1.65h0A1.57,1.57,0,0,1,43.29,118h1.52a1.57,1.57,0,0,1,1.46,1.65h0A1.58,1.58,0,0,1,44.81,121.26Z" class="cls-19"></path></g><g id="robot1"><path d="M146.41,90.14V85.49L143,86a12.32,12.32,0,0,0-5.31-1.08v.18c.31,0,.62,0,.92,0a27.33,27.33,0,0,0-4.1.27,17.93,17.93,0,0,1,3.18-.3v-.18h0a17.51,17.51,0,0,0-9.44,2.76l-.57.39-3.62.49v5.55h0A5,5,0,0,0,126.54,98a11.41,11.41,0,0,0,6.26,1.61,17.51,17.51,0,0,0,9.43-2.76c2.76-1.82,4.19-4.14,4.18-6.26C146.42,90.31,146.41,90.14,146.41,90.14Zm-15.9,9.11a10.8,10.8,0,0,1-1.44-.32A14.54,14.54,0,0,0,130.51,99.25ZM129,98.92l-.06,0Z" class="cls-11"></path><ellipse transform="translate(-9.98 17.85) rotate(-7.28)" ry="5.02" rx="11.24" cy="87.33" cx="135.26" class="cls-22"></ellipse><path d="M132.8,94.28a11.12,11.12,0,0,1-6.08-1.56A4.49,4.49,0,0,1,124.46,89h0V53.06h0V52.7c0-2.07,1.45-4.23,4-5.92a17.22,17.22,0,0,1,9.27-2.71,11.11,11.11,0,0,1,6.07,1.56A5.35,5.35,0,0,1,145.28,47l-.13.11c.12.18.22.34.31.5l.14-.1a4.08,4.08,0,0,1,.43,1.36h0V49a5.82,5.82,0,0,1,0,.59v.1l0,0V85.76h0c0,2-1.5,4.16-4,5.81A17.22,17.22,0,0,1,132.8,94.28Z" class="cls-29"></path><path d="M137.73,44.47a10.8,10.8,0,0,1,5.89,1.5A5.06,5.06,0,0,1,145,47.26l-.13.11c.11.16.21.32.3.47l.13-.1a3.76,3.76,0,0,1,.38,1.16V49a4.52,4.52,0,0,1,0,.52v.22l0,0V85.56h0v.2c-.05,1.9-1.44,3.89-3.83,5.47a16.82,16.82,0,0,1-9.09,2.65,10.8,10.8,0,0,1-5.89-1.5A4.1,4.1,0,0,1,124.81,89h0V53.41h0V52.7c0-1.9,1.42-4,3.83-5.58a16.81,16.81,0,0,1,9.08-2.65h0m0-.79h0a17.51,17.51,0,0,0-9.43,2.76c-2.76,1.82-4.19,4.14-4.18,6.26h0V89a5,5,0,0,0,2.43,4.1,11.49,11.49,0,0,0,6.26,1.6,17.51,17.51,0,0,0,9.43-2.76c2.71-1.79,4.13-4,4.18-6.14V49.6h0a3.65,3.65,0,0,0,0-.66.78.78,0,0,0,0-.09h0A5,5,0,0,0,144,45.29a11.4,11.4,0,0,0-6.25-1.61Zm8,3.73a5.19,5.19,0,0,0-.32-.51,3.36,3.36,0,0,1,.32.51Z" class="cls-24"></path><g class="cls-25"><path d="M137.21,89a.79.79,0,0,0-.76-.83.86.86,0,0,0,0,1.71A.84.84,0,0,0,137.21,89Z" class="cls-19"></path></g><g class="cls-25"><path d="M134.85,84.84a1.08,1.08,0,0,0-1-1.14,1.17,1.17,0,0,0,0,2.33A1.14,1.14,0,0,0,134.85,84.84Z" class="cls-19"></path></g><g class="cls-25"><path d="M137.21,79.41a1.58,1.58,0,0,0-1.52-1.66,1.72,1.72,0,0,0,0,3.41A1.66,1.66,0,0,0,137.21,79.41Z" class="cls-19"></path></g><path d="M131.61,74.09h-2.2a.93.93,0,0,1-.86-1h0a.92.92,0,0,1,.86-1h2.2a.91.91,0,0,1,.86,1h0A.92.92,0,0,1,131.61,74.09Z" class="cls-19"></path><path d="M139.32,74.09h-2.2a.92.92,0,0,1-.86-1h0a.91.91,0,0,1,.86-1h2.2a.92.92,0,0,1,.86,1h0A.93.93,0,0,1,139.32,74.09Z" class="cls-19"></path></g><g id="machine"><path d="M278.66,60.57V120a9.73,9.73,0,0,1-4.18,8.18L228,158.5a8.88,8.88,0,0,1-9.82,0l-60.76-39.63V54l65.67,40.31Z" class="cls-2"></path><polygon points="207.94 146.78 207.94 94.98 162.47 63.86 162.47 117.13 207.94 146.78" class="cls-30"></polygon><path d="M81.65,209l126.29-82.55v-6.58L86.05,199.35s-3.8,1.76-4.9,3.65S81.65,209,81.65,209Z" class="cls-14"></path><path d="M207.94,119.87,84.41,200.42a6.41,6.41,0,0,0-2.76,5.4v28.34c0,2.73-2.62,4.44-4.71,3.07L42.8,215a3.65,3.65,0,0,1-1.57-3.07V169.28l40.42,26.35,126.29-82.35v6.59Z" class="cls-8"></path><path d="M207.94,95v18.3l-7.33,4.78h0l-.2.12-9.65,6.3-.2.13-6.42,4.18-.19.13-6.9,4.5-.2.13-9.31,6.07-.2.13-9.66,6.3-.19.13-6.59,4.29-.2.13-6.9,4.5-.2.13-9.31,6.07-.2.13-9.65,6.3-.2.13L117.82,172l-.19.13-6.9,4.5-.2.13-9.31,6.07-.2.13-9.66,6.29-.19.13-7,4.57-.19.13-2.32,1.51s-.8,1.72-1.64,4.19c0,.08,0,.15-.08.22a36.09,36.09,0,0,0-1.72,7.31l0,.25c0,.47-.07.94-.09,1.4a1,1,0,0,1-1.49.94L43.73,185.73a5.8,5.8,0,0,1-2.5-4.88V169.28l4.9-3.2.2-.13,7-4.57.2-.13L63.2,155l.19-.13,9.32-6.07.19-.13,6.9-4.5L80,144l6.41-4.18.2-.13,9.66-6.3.2-.13,9.31-6.07.19-.13,6.9-4.5.2-.13,6.59-4.29.2-.13,9.66-6.3.19-.13,9.31-6.07.2-.13h0l6.9-4.5h0l.2-.13,6.41-4.18.2-.13,9.66-6.3.2-.13,9.31-6.07.19-.13,6.9-4.5.2-.13,2.8-1.82Z" class="cls-31"></path><polygon points="119.66 118.14 157.49 146.18 157.68 146.05 119.86 118.01 119.66 118.14" class="cls-14"></polygon><polygon points="129.52 111.71 167.34 139.75 167.54 139.62 129.71 111.58 129.52 111.71" class="cls-14"></polygon><polygon points="139.22 105.38 139.03 105.51 176.85 133.55 177.05 133.42 139.22 105.38 139.22 105.38" class="cls-14"></polygon><polygon points="146.12 100.88 184.15 128.79 146.32 100.75 146.12 100.88" class="cls-14"></polygon><polygon points="152.74 96.57 190.56 124.61 190.76 124.48 152.93 96.44 152.74 96.57" class="cls-14"></polygon><polygon points="162.79 90.01 162.59 90.14 200.41 118.18 200.61 118.06 200.61 118.06 162.79 90.01" class="cls-14"></polygon><polygon points="172.1 83.94 207.94 110.51 207.94 110.23 172.29 83.81 172.1 83.94" class="cls-14"></polygon><polygon points="179.39 79.18 179.19 79.31 207.94 100.62 207.94 100.35 179.39 79.18" class="cls-14"></polygon><polygon points="53.34 161.38 91.17 189.42 91.36 189.29 53.54 161.25 53.34 161.38" class="cls-14"></polygon><polygon points="46.13 166.08 83.96 194.12 84.16 193.99 46.33 165.95 46.13 166.08" class="cls-14"></polygon><polygon points="41.23 171.36 79.92 200.04 80 199.82 41.23 171.09 41.23 171.36" class="cls-14"></polygon><polygon points="41.23 180.22 78.17 207.6 78.2 207.35 41.23 179.94 41.23 180.22" class="cls-14"></polygon><polygon points="63.2 154.96 101.02 183 101.22 182.87 63.39 154.83 63.2 154.96" class="cls-14"></polygon><polygon points="72.71 148.76 110.53 176.8 110.73 176.67 72.9 148.63 72.71 148.76" class="cls-14"></polygon><polygon points="79.8 144.13 117.63 172.17 117.82 172.04 80 144 79.8 144.13" class="cls-14"></polygon><polygon points="86.41 139.82 124.24 167.86 124.44 167.73 86.61 139.69 86.41 139.82" class="cls-14"></polygon><polygon points="96.27 133.39 134.09 161.43 134.29 161.3 96.47 133.26 96.27 133.39" class="cls-14"></polygon><polygon points="105.78 127.19 143.6 155.23 143.8 155.1 105.97 127.06 105.78 127.19" class="cls-14"></polygon><polygon points="112.88 122.56 150.7 150.6 150.9 150.47 113.07 122.43 112.88 122.56" class="cls-14"></polygon><path d="M278.66,60.57V120a9.73,9.73,0,0,1-4.18,8.18L228,158.5a9,9,0,0,1-4.91,1.48V94.29Z" class="cls-14"></path><path d="M177.63,67.16l38.73,25.26a12.17,12.17,0,0,0,13.47,0l48.83-31.85-53.9-35.15a21.22,21.22,0,0,0-23.54,0L157.42,54Z" class="cls-8"></path><path d="M177.63,45.3l38.73,25.26a12.14,12.14,0,0,0,13.47,0l48.83-31.85L224.76,3.56a21.22,21.22,0,0,0-23.54,0l-43.8,28.56Z" class="cls-32"></path><path d="M177.63,56.78,216.36,82a12.17,12.17,0,0,0,13.47,0l48.83-31.85L224.76,15a21.22,21.22,0,0,0-23.54,0L157.42,43.6Z" class="cls-33"></path></g><g id="box"><g class="cls-34"><ellipse ry="16.23" rx="24.1" cy="164.93" cx="90.38" class="cls-14"></ellipse></g><path d="M89.94,140.29l-16.1,10.5a4.65,4.65,0,0,0-2,3.91v8.15a4.68,4.68,0,0,0,1.79,3.76l16,12a3.61,3.61,0,0,0,4.19.15l16.39-10.58a4.64,4.64,0,0,0,2-3.92V156a4.69,4.69,0,0,0-1.83-3.8L94.1,140.4A3.63,3.63,0,0,0,89.94,140.29Z" class="cls-8"></path><path d="M89.94,140.29l-16.1,10.5a4.65,4.65,0,0,0-2,3.91v8.15a4.68,4.68,0,0,0,1.79,3.76l16,12a3.61,3.61,0,0,0,4.19.15l16.39-10.58a4.64,4.64,0,0,0,2-3.92V156a4.69,4.69,0,0,0-1.83-3.8L94.1,140.4A3.63,3.63,0,0,0,89.94,140.29Z" class="cls-35"></path><path d="M76.28,150.31,91,140.7a1.79,1.79,0,0,1,2,.06l14.83,10.74a2.38,2.38,0,0,1-.09,3.81l-14.72,9.46a1.78,1.78,0,0,1-2-.05l-14.83-10.6A2.38,2.38,0,0,1,76.28,150.31Z" class="cls-19"></path><path d="M77.1,150.36l14-9a1.7,1.7,0,0,1,1.94,0l14.06,10.08a2.23,2.23,0,0,1-.08,3.58l-14,8.89a1.67,1.67,0,0,1-1.92-.05L77,153.94A2.22,2.22,0,0,1,77.1,150.36Z" class="cls-36"></path><path d="M81.21,156.9l10.84-7.16,10.72,8,4.2-2.67s1.67-.86,1.48-1.87l-.19-1L92.64,140.76s-.18-.58-2.85,1.11-13.5,8.77-13.5,8.77a2.44,2.44,0,0,0,0,3.11C77.58,155.38,81.21,156.9,81.21,156.9Z" class="cls-37"></path><path d="M100,153c0-4.82-3.5-8.49-7.81-8.49s-7.81,3.9-7.81,8.71,3.5,8.72,7.81,8.72S100,157.77,100,153Z" class="cls-38"></path><path d="M96,156.36h0l-1.47-3.58c0-.23-1.06-.41-2.38-.41s-2.38.18-2.38.41l-1.71,3.55a.19.19,0,0,0-.07.14c0,.41,1.8.74,4,.74s4-.33,4-.74A.18.18,0,0,0,96,156.36Z" class="cls-19"></path><path d="M96,156.35c-.3-.73-1.94-4.7-2.13-5.27a3.09,3.09,0,0,1-.18-.9v-2.46h0c0-.18-.67-.33-1.5-.33s-1.5.15-1.5.33h0v2.39h0c-.12,1.23-2.22,5.4-2.63,6.21a.19.19,0,0,0-.07.14c0,.41,1.8.74,4,.74s4-.33,4-.74A.16.16,0,0,0,96,156.35Z" class="cls-19"></path><ellipse ry="0.33" rx="1.5" cy="147.71" cx="92.21" class="cls-19"></ellipse><ellipse ry="0.41" rx="2.38" cy="152.77" cx="92.17" class="cls-19"></ellipse><ellipse ry="0.74" rx="4.03" cy="156.46" cx="92.04" class="cls-19"></ellipse><path d="M100,153c0-4.82-3.5-8.49-7.81-8.49s-7.81,3.9-7.81,8.71,3.5,8.72,7.81,8.72S100,157.77,100,153Z" class="cls-39"></path><g class="cls-34"><ellipse ry="16.23" rx="24.1" cy="134.66" cx="135.66" class="cls-14"></ellipse></g><path d="M133.85,110.94l-16.1,10.5a4.63,4.63,0,0,0-2,3.91v8.14a4.7,4.7,0,0,0,1.79,3.77l16,12a3.63,3.63,0,0,0,4.19.16l16.39-10.59a4.64,4.64,0,0,0,2-3.92v-8.22a4.7,4.7,0,0,0-1.84-3.8L138,111.05A3.61,3.61,0,0,0,133.85,110.94Z" class="cls-8"></path><path d="M135.22,110l-16.1,10.5a4.65,4.65,0,0,0-2,3.91v8.14a4.73,4.73,0,0,0,1.79,3.77l16,12a3.63,3.63,0,0,0,4.19.16l16.39-10.59a4.64,4.64,0,0,0,2-3.92v-8.22a4.71,4.71,0,0,0-1.84-3.8l-16.32-11.81A3.63,3.63,0,0,0,135.22,110Z" class="cls-40"></path><path d="M120.19,121l14.73-9.6a1.77,1.77,0,0,1,2.05.05l14.83,10.74a2.38,2.38,0,0,1-.09,3.81L137,135.42a1.79,1.79,0,0,1-2-.06l-14.83-10.6A2.38,2.38,0,0,1,120.19,121Z" class="cls-19"></path><path d="M121,121l14-9a1.72,1.72,0,0,1,1.95,0L151,122.12a2.23,2.23,0,0,1-.08,3.58l-14,8.89a1.7,1.7,0,0,1-1.92-.05l-14.06-10A2.23,2.23,0,0,1,121,121Z" class="cls-41"></path><path d="M125.12,127.54,136,120.39l10.72,8,4.2-2.67s1.67-.86,1.48-1.88l-.19-1L136.55,111.4s-.18-.57-2.85,1.11-13.49,8.77-13.49,8.77a2.43,2.43,0,0,0,0,3.11C121.49,126,125.12,127.54,125.12,127.54Z" class="cls-42"></path><path d="M143.93,123.6c0-4.81-3.5-8.49-7.81-8.49s-7.81,3.9-7.81,8.71,3.5,8.72,7.81,8.72S143.93,128.41,143.93,123.6Z" class="cls-43"></path><path d="M139.94,127h0l-1.46-3.58c0-.22-1.07-.41-2.38-.41s-2.39.19-2.39.41L132,127a.21.21,0,0,0-.07.14c0,.41,1.8.74,4,.74s4-.33,4-.74A.21.21,0,0,0,139.94,127Z" class="cls-19"></path><path d="M139.93,127c-.3-.72-1.94-4.7-2.13-5.26a3.14,3.14,0,0,1-.18-.9v-2.46h0v0c0-.18-.67-.33-1.5-.33s-1.5.15-1.5.33v0h0v2.39h0c-.12,1.22-2.22,5.39-2.63,6.2a.21.21,0,0,0-.07.14c0,.41,1.8.74,4,.74s4-.33,4-.74A.18.18,0,0,0,139.93,127Z" class="cls-19"></path><ellipse ry="0.33" rx="1.5" cy="118.35" cx="136.12" class="cls-19"></ellipse><ellipse ry="0.41" rx="2.38" cy="123.41" cx="136.08" class="cls-19"></ellipse><ellipse ry="0.74" rx="4.03" cy="127.1" cx="135.95" class="cls-19"></ellipse><path d="M143.93,123.6c0-4.81-3.5-8.49-7.81-8.49s-7.81,3.9-7.81,8.71,3.5,8.72,7.81,8.72S143.93,128.41,143.93,123.6Z" class="cls-44"></path><g class="cls-34"><ellipse ry="16.23" rx="24.1" cy="105.13" cx="180.26" class="cls-14"></ellipse></g><path d="M179.82,80.49,163.72,91a4.65,4.65,0,0,0-2,3.91v8.15a4.71,4.71,0,0,0,1.79,3.76l16,12a3.61,3.61,0,0,0,4.19.15l16.39-10.58a4.65,4.65,0,0,0,2-3.92V96.22a4.7,4.7,0,0,0-1.84-3.8L184,80.6A3.63,3.63,0,0,0,179.82,80.49Z" class="cls-8"></path><path d="M179.82,80.49,163.72,91a4.65,4.65,0,0,0-2,3.91v8.15a4.71,4.71,0,0,0,1.79,3.76l16,12a3.61,3.61,0,0,0,4.19.15l16.39-10.58a4.65,4.65,0,0,0,2-3.92V96.22a4.7,4.7,0,0,0-1.84-3.8L184,80.6A3.63,3.63,0,0,0,179.82,80.49Z" class="cls-45"></path><path d="M166.16,90.51l14.73-9.61a1.79,1.79,0,0,1,2.05.06L197.77,91.7a2.38,2.38,0,0,1-.09,3.81L183,105a1.78,1.78,0,0,1-2,0L166.1,94.32A2.38,2.38,0,0,1,166.16,90.51Z" class="cls-19"></path><path d="M167,90.56l14-9a1.72,1.72,0,0,1,1.95,0l14.05,10.08a2.22,2.22,0,0,1-.08,3.58l-14,8.9a1.69,1.69,0,0,1-1.92-.06l-14.06-10A2.23,2.23,0,0,1,167,90.56Z" class="cls-46"></path><path d="M171.09,97.1l10.84-7.16,10.73,8,4.19-2.67s1.67-.86,1.48-1.87l-.19-1L182.52,81s-.18-.58-2.84,1.11-13.5,8.77-13.5,8.77a2.43,2.43,0,0,0,0,3.11C167.46,95.58,171.09,97.1,171.09,97.1Z" class="cls-47"></path><path d="M189.9,93.16c0-4.82-3.5-8.49-7.81-8.49s-7.81,3.9-7.81,8.71,3.5,8.72,7.81,8.72S189.9,98,189.9,93.16Z" class="cls-48"></path><path d="M185.91,96.56h0L184.44,93c0-.23-1.07-.41-2.38-.41s-2.38.18-2.38.41L178,96.52a.19.19,0,0,0-.07.14c0,.41,1.8.74,4,.74s4-.33,4-.74A.18.18,0,0,0,185.91,96.56Z" class="cls-19"></path><path d="M185.9,96.55c-.3-.73-1.94-4.7-2.13-5.27a3,3,0,0,1-.18-.9V87.92h0c0-.18-.67-.33-1.5-.33s-1.49.15-1.49.33h0v2.39h0c-.12,1.23-2.22,5.4-2.63,6.21a.19.19,0,0,0-.07.14c0,.41,1.8.74,4,.74s4-.33,4-.74A.16.16,0,0,0,185.9,96.55Z" class="cls-19"></path><ellipse ry="0.33" rx="1.5" cy="87.91" cx="182.09" class="cls-19"></ellipse><ellipse ry="0.41" rx="2.38" cy="92.97" cx="182.06" class="cls-19"></ellipse><ellipse ry="0.74" rx="4.03" cy="96.66" cx="181.92" class="cls-19"></ellipse><path d="M189.9,93.16c0-4.82-3.5-8.49-7.81-8.49s-7.81,3.9-7.81,8.71,3.5,8.72,7.81,8.72S189.9,98,189.9,93.16Z" class="cls-49"></path></g></g></g></svg>