<svg viewBox="0 0 125.37 81.68" xmlns="http://www.w3.org/2000/svg"><defs><style>.cls-1{fill:#00bced;}.cls-1,.cls-2,.cls-3,.cls-4,.cls-5{fill-rule:evenodd;}.cls-2{fill:#f4fcff;}.cls-3{fill:#b3e9fe;}.cls-4,.cls-6{fill:#05bcec;}.cls-5,.cls-7{fill:#41d8ff;}</style></defs><title>资源 3</title><g id="图层_2"><g id="图层_1-2"><path d="M71.39,12A17.41,17.41,0,0,0,54,12L2.18,41.91a4.35,4.35,0,0,0,0,7.54L54,79.35a17.41,17.41,0,0,0,17.41,0l51.8-29.9a4.36,4.36,0,0,0,0-7.54Z" class="cls-1"></path><polygon points="113.04 28.8 125.36 35.91 125.36 45.78 113.04 38.66 113.04 28.8" class="cls-1"></polygon><polygon points="0.02 35.9 12.34 43.01 12.34 52.87 0.02 45.76 0.02 35.9" class="cls-1"></polygon><path d="M71.4,2.33A17.43,17.43,0,0,0,54,2.33L2.18,32.24a4.36,4.36,0,0,0,0,7.54L54,69.68a17.38,17.38,0,0,0,17.42,0l51.79-29.9a4.35,4.35,0,0,0,0-7.54Z" class="cls-2"></path><path d="M85.39,22a1.77,1.77,0,0,1,1.75.7,1.75,1.75,0,0,1,.09,1.88L63.65,65.43a1.75,1.75,0,0,1-2.38.64L14.06,38.82a1.74,1.74,0,0,1,.55-3.22Z" class="cls-3"></path><path d="M74.1,30a7.63,7.63,0,0,0-7.62,0L55.15,36.56a2.49,2.49,0,0,0,0,4.32h0a7.63,7.63,0,0,0,7.62,0L74.1,34.33a2.48,2.48,0,0,0,0-4.31Z" class="cls-4"></path><path d="M53.92,34.48v4.58l21.44-6.94V27.69Z" class="cls-4"></path><path d="M74.1,25.65a7.63,7.63,0,0,0-7.62,0L55.15,32.19a2.49,2.49,0,0,0,0,4.32h0a7.63,7.63,0,0,0,7.62,0L74.1,30a2.49,2.49,0,0,0,0-4.32Z" class="cls-5"></path><ellipse transform="translate(2.32 92.7) rotate(-89.82)" ry="5.39" rx="3.11" cy="45.19" cx="47.65" class="cls-6"></ellipse><path d="M42.27,40.79v4.39H53v-4.5Z" class="cls-4"></path><ellipse transform="translate(6.68 88.34) rotate(-89.82)" ry="5.39" rx="3.11" cy="40.82" cx="47.65" class="cls-7"></ellipse></g></g></svg>