<svg viewBox="0 0 125.37 81.68" xmlns="http://www.w3.org/2000/svg"><defs><style>.cls-1{fill:#00bced;}.cls-1,.cls-2,.cls-3,.cls-4,.cls-5,.cls-6{fill-rule:evenodd;}.cls-2{fill:#f4fcff;}.cls-3{fill:#b6ebff;}.cls-4{fill:#ffb0c8;}.cls-5{fill:#7de4ff;}.cls-6{fill:#41d8ff;}</style></defs><title>资源 5</title><g id="图层_2"><g id="图层_1-2"><path d="M71.39,12A17.41,17.41,0,0,0,54,12L2.18,41.91a4.35,4.35,0,0,0,0,7.54L54,79.35a17.41,17.41,0,0,0,17.41,0l51.8-29.9a4.36,4.36,0,0,0,0-7.54Z" class="cls-1"></path><polygon points="113.05 28.8 125.37 35.91 125.37 45.78 113.05 38.66 113.05 28.8" class="cls-1"></polygon><polygon points="0.02 35.9 12.34 43.01 12.34 52.87 0.02 45.76 0.02 35.9" class="cls-1"></polygon><path d="M71.4,2.33A17.43,17.43,0,0,0,54,2.33L2.18,32.24a4.36,4.36,0,0,0,0,7.54L54,69.68a17.38,17.38,0,0,0,17.42,0l51.79-29.9a4.35,4.35,0,0,0,0-7.54Z" class="cls-2"></path><path d="M32.43,23.48,27.5,26.32a1.75,1.75,0,0,0,0,3l4.93,2.84L40,27.83Z" class="cls-3"></path><polygon points="39.96 36.53 47.5 32.18 55.04 36.53 47.5 40.89 39.96 36.53" class="cls-3"></polygon><polygon points="62.58 49.59 70.12 45.23 77.66 49.59 70.12 53.94 62.58 49.59" class="cls-4"></polygon><polygon points="32.44 32.19 39.98 27.83 47.52 32.19 39.98 36.54 32.44 32.19" class="cls-4"></polygon><polygon points="55.05 45.24 62.59 40.89 70.13 45.24 62.59 49.6 55.05 45.24" class="cls-3"></polygon><polygon points="47.51 40.89 55.05 36.53 62.59 40.89 55.05 45.24 47.51 40.89" class="cls-4"></polygon><path d="M77.66,49.59l-7.54,4.35,5.8,3.35a3.44,3.44,0,0,0,3.48,0l5.8-3.35Z" class="cls-3"></path><polygon points="47.6 14.7 55.14 10.35 62.68 14.7 55.14 19.06 47.6 14.7" class="cls-4"></polygon><polygon points="32.43 23.46 39.97 19.11 47.51 23.46 39.97 27.82 32.43 23.46" class="cls-4"></polygon><polygon points="62.67 23.4 70.21 19.05 77.75 23.4 70.22 27.76 62.67 23.4" class="cls-4"></polygon><polygon points="47.5 32.16 55.04 27.81 62.59 32.16 55.04 36.52 47.5 32.16" class="cls-4"></polygon><polygon points="85.29 36.46 92.83 32.11 100.37 36.46 92.83 40.82 85.29 36.46" class="cls-3"></polygon><polygon points="70.12 45.22 77.66 40.87 85.2 45.22 77.66 49.57 70.12 45.22" class="cls-3"></polygon><polygon points="55.15 19.06 62.69 14.71 70.23 19.06 62.69 23.41 55.15 19.06" class="cls-3"></polygon><polygon points="39.98 27.82 47.52 23.46 55.06 27.82 47.52 32.17 39.98 27.82" class="cls-3"></polygon><polygon points="77.76 32.12 85.3 27.76 92.84 32.12 85.3 36.47 77.76 32.12" class="cls-4"></polygon><polygon points="62.59 40.88 70.13 36.52 77.67 40.88 70.13 45.23 62.59 40.88" class="cls-4"></polygon><polygon points="70.22 27.76 77.76 23.41 85.3 27.76 77.76 32.11 70.22 27.76" class="cls-3"></polygon><polygon points="55.05 36.52 62.59 32.16 70.13 36.52 62.59 40.87 55.05 36.52" class="cls-3"></polygon><polygon points="92.83 40.82 100.37 36.46 107.92 40.82 100.38 45.17 92.83 40.82" class="cls-4"></polygon><polygon points="77.66 49.58 85.2 45.22 92.75 49.58 85.2 53.93 77.66 49.58" class="cls-4"></polygon><polygon points="55.12 27.77 62.66 23.41 70.2 27.77 62.66 32.12 55.12 27.77" class="cls-3"></polygon><polygon points="77.73 40.82 85.28 36.47 92.82 40.82 85.28 45.18 77.73 40.82" class="cls-4"></polygon><polygon points="47.59 23.42 55.13 19.07 62.67 23.42 55.13 27.77 47.59 23.42" class="cls-4"></polygon><polygon points="70.21 36.48 77.75 32.12 85.29 36.48 77.75 40.83 70.21 36.48" class="cls-3"></polygon><polygon points="40.05 19.07 47.59 14.71 55.13 19.07 47.59 23.42 40.05 19.07" class="cls-3"></polygon><polygon points="62.66 32.12 70.2 27.77 77.75 32.12 70.2 36.48 62.66 32.12" class="cls-4"></polygon><polygon points="85.28 45.18 92.82 40.83 100.36 45.18 92.82 49.53 85.28 45.18" class="cls-3"></polygon><path d="M64.42,7a3.49,3.49,0,0,0-3.48,0l-5.8,3.35,7.54,4.35,7.54-4.35Z" class="cls-3"></path><polygon points="70.21 19.05 77.75 14.7 85.3 19.05 77.75 23.41 70.21 19.05" class="cls-3"></polygon><polygon points="92.83 32.11 100.37 27.75 107.91 32.11 100.37 36.46 92.83 32.11" class="cls-4"></polygon><polygon points="62.69 14.71 70.23 10.35 77.77 14.71 70.23 19.06 62.69 14.71" class="cls-4"></polygon><polygon points="85.3 27.76 92.84 23.41 100.39 27.76 92.84 32.12 85.3 27.76" class="cls-3"></polygon><polygon points="77.76 23.41 85.3 19.05 92.84 23.41 85.3 27.76 77.76 23.41" class="cls-4"></polygon><path d="M107.92,32.11l-7.55,4.35,7.55,4.36L112.84,38a1.74,1.74,0,0,0,0-3Z" class="cls-3"></path><polygon points="32.38 32.06 39.92 27.71 47.46 32.06 39.92 36.42 32.38 32.06" class="cls-5"></polygon><polygon points="47.46 49.47 55 45.12 62.54 49.47 55 53.83 47.46 49.47" class="cls-5"></polygon><polygon points="17.24 31.98 24.88 36.4 24.88 45.08 17.24 40.66 17.24 31.98" class="cls-1"></polygon><polygon points="32.37 32.05 39.93 36.41 39.93 53.82 32.37 49.46 32.37 32.05" class="cls-1"></polygon><polygon points="47.58 49.54 55.14 53.91 55.14 62.6 47.58 58.24 47.58 49.54" class="cls-1"></polygon><polygon points="24.86 36.33 32.37 31.99 32.37 40.76 24.86 45.09 24.86 36.33" class="cls-6"></polygon><polygon points="39.91 36.37 47.42 32.03 47.42 49.51 39.91 53.84 39.91 36.37" class="cls-6"></polygon><polygon points="55.12 53.76 62.63 49.42 62.63 58.29 55.12 62.62 55.12 53.76" class="cls-6"></polygon><polygon points="17.25 32.05 24.82 27.68 32.42 32.08 24.86 36.44 17.25 32.05" class="cls-5"></polygon></g></g></svg>